<svg id="Background" xmlns="http://www.w3.org/2000/svg" viewBox="0 0 2840 1325"><defs><style>.cls-1{font-size:300px;fill:#fff;font-family:Futura-Medium, Futura;font-weight:500;}.cls-2{letter-spacing:0.01em;}.cls-3{letter-spacing:-0.01em;}.cls-4{letter-spacing:-0.02em;}.cls-5{fill:#e49a2a;}</style></defs><text class="cls-1" transform="translate(1153.49 571.31)">Con<tspan class="cls-2" x="555.03" y="0">t</tspan><tspan x="639.7" y="0">ained</tspan><tspan x="0" y="360">Ent</tspan><tspan class="cls-3" x="416.16" y="360">r</tspan><tspan x="525.73" y="360">o</tspan><tspan class="cls-4" x="706.05" y="360">p</tspan><tspan x="879.64" y="360">y</tspan></text><path class="cls-5" d="M959.1,1047.42c-316.33,242.72-778.53,17-779.42-384.92C185.66,197,764.73,3.42,1049.47,368l91-91C933.56,15.82,535.44-26.4,279,186.58-22.84,428.2-22.83,896.83,279,1138.43c256.4,212.94,654.61,170.79,861.48-90.37l-91-91A490,490,0,0,1,959.1,1047.42Z"/><path class="cls-5" d="M1018.35,399.07C877.09,205.12,592,163.13,401.12,308.71c-236.21,174.2-236.2,533.41,0,707.59,190.83,145.55,476,103.6,617.23-90.37l-91.86-91.86C835.18,977.45,633.87,1019.83,493,924.44ZM664.55,572.14,402.61,834.07c-67.83-97.33-67.84-245.81,0-343.14,91.28-143.35,292.63-185.76,433.5-90.37Z"/></svg>